<?xml version="1.0" encoding="iso-8859-1"?>
<!-- Generator: Adobe Illustrator 19.0.0, SVG Export Plug-In . SVG Version: 6.00 Build 0)  -->
<svg version="1.1" id="Layer_1" xmlns="http://www.w3.org/2000/svg" xmlns:xlink="http://www.w3.org/1999/xlink" x="0px" y="0px"
	 viewBox="0 0 628.021 628.021" style="enable-background:new 0 0 628.021 628.021;" xml:space="preserve">
<g>
	<g>
		<path style="fill:none;stroke:#F2F91C;stroke-miterlimit:10;" d="M174.887,628.021"/>
	</g>
</g>
<g>
	<g>
		<path d="M556.51,306.338h-485V0h485V306.338z M101.51,276.338h425V30h-425V276.338z"/>
	</g>
	<g>
		<path style="fill:none;stroke:#000000;" d="M174.887,96.021"/>
	</g>
	<g>
		<polyline points="259.752,210.706 278.295,95.927 307.931,95.927 289.39,210.706 259.752,210.706 		"/>
	</g>
	<g>
		<path d="M396.901,98.744c-5.859-2.305-15.083-4.819-26.558-4.819c-29.302,0-49.928,15.578-50.108,37.888
			c-0.179,16.493,14.728,25.703,25.962,31.183c11.551,5.622,15.431,9.219,15.382,14.243c-0.077,7.687-9.215,11.213-17.739,11.213
			c-11.865,0-18.171-1.737-27.916-6.02l-3.816-1.827l-4.145,25.691c6.913,3.197,19.722,5.973,33.023,6.118
			c31.147,0,51.383-15.389,51.617-39.205c0.105-13.085-7.792-22.998-24.896-31.188c-10.356-5.327-16.716-8.851-16.643-14.241
			c0.007-4.768,5.371-9.874,16.979-9.874c9.701-0.159,16.71,2.079,22.186,4.41l2.663,1.311L396.901,98.744"/>
	</g>
	<g>
		<path d="M471.776,96.043h-22.901c-7.106,0-12.429,2.032-15.535,9.514l-44.023,105.194h31.136c0,0,5.08-14.15,6.232-17.261
			c3.397,0,33.642,0.067,37.958,0.067c0.883,3.997,3.61,17.194,3.61,17.194h27.507L471.776,96.043 M435.211,170.014
			c2.458-6.6,11.809-32.081,11.809-32.081c-0.17,0.301,2.437-6.651,3.933-10.954l2,9.902c0,0,5.685,27.391,6.86,33.132
			C455.202,170.014,440.998,170.014,435.211,170.014z"/>
	</g>
	<g>
		<polyline points="205.905,174.275 190.493,96.017 130.76,96.018 164.565,121.015 188.251,210.616 219.619,210.616 266.294,96.021 
			234.887,96.021 205.878,174.276 		"/>
	</g>
</g>
<g>
</g>
<g>
</g>
<g>
</g>
<g>
</g>
<g>
</g>
<g>
</g>
<g>
</g>
<g>
</g>
<g>
</g>
<g>
</g>
<g>
</g>
<g>
</g>
<g>
</g>
<g>
</g>
<g>
</g>
</svg>
